<svg width="20" height="12" viewBox="0 0 640 480" xmlns="http://www.w3.org/2000/svg">
  <path fill="#B22234" d="M0 0h640v480H0z"/>
  <path fill="#fff" d="M0 34.3h640V68.5H0zm0 68.5h640v34.3H0zm0 102.9h640v34.2H0zm0 102.8h640v34.3H0zm0 102.9h640v34.2H0zm0 102.8h640v34.3H0zm0 68.6h640v34.2H0z"/>
  <path fill="#3C3B6E" d="M0 0h256v256H0z"/>
  <path fill="#fff" d="M30 20l4.7 14.3h15L36.5 42.9 41.3 57.2 26.5 45.7 11.7 57.3 16.5 43 1.7 31.5h15L30 20zm51.8 0l4.7 14.3h15L88.3 42.9 93.1 57.2 78.3 45.7 63.5 57.3 68.3 43 53.5 31.5h15l4.3-11.5zm52 0l4.7 14.3h15l-11.7 8.6 4.8 14.3-14.8-11.5-14.8 11.6 4.8-14.4-11.7-8.6h15l4.7-14.3zm-104 52l4.7 14.3h15l-11.7 8.6 4.8 14.3-14.8-11.5-14.8 11.6 4.8-14.4-11.7-8.6h15l4.7-14.3zm52 0l4.7 14.3h15l-11.7 8.6 4.8 14.3-14.8-11.5-14.8 11.6 4.8-14.4-11.7-8.6h15l4.7-14.3zm52 0l4.7 14.3h15l-11.7 8.6 4.8 14.3-14.8-11.5-14.8 11.6 4.8-14.4-11.7-8.6h15l4.7-14.3zm-156 52l4.7 14.3h15l-11.7 8.6 4.8 14.3-14.8-11.5-14.8 11.6 4.8-14.4-11.7-8.6h15l4.7-14.3zm52 0l4.7 14.3h15l-11.7 8.6 4.8 14.3-14.8-11.5-14.8 11.6 4.8-14.4-11.7-8.6h15l4.7-14.3zm52 0l4.7 14.3h15l-11.7 8.6 4.8 14.3-14.8-11.5-14.8 11.6 4.8-14.4-11.7-8.6h15l4.7-14.3zm52 0l4.7 14.3h15l-11.7 8.6 4.8 14.3-14.8-11.5-14.8 11.6 4.8-14.4-11.7-8.6h15l4.7-14.3zm-104 52l4.7 14.3h15l-11.7 8.6 4.8 14.3-14.8-11.5-14.8 11.6 4.8-14.4-11.7-8.6h15l4.7-14.3zm52 0l4.7 14.3h15l-11.7 8.6 4.8 14.3-14.8-11.5-14.8 11.6 4.8-14.4-11.7-8.6h15l4.7-14.3zm-52 52l4.7 14.3h15l-11.7 8.6 4.8 14.3-14.8-11.5-14.8 11.6 4.8-14.4-11.7-8.6h15l4.7-14.3z"/>
</svg>